<svg width="74" height="21" viewBox="0 0 74 21" fill="none" xmlns="http://www.w3.org/2000/svg">
<g clip-path="url(#clip0_5_1971)">
<path d="M64.2865 10.4923C64.2865 7.75055 66.3754 5.8183 69.1433 5.8183C71.9111 5.8183 74 7.75055 74 10.4923C74 13.234 71.9111 15.1662 69.1433 15.1662C66.3754 15.1662 64.2865 13.2079 64.2865 10.4923ZM71.2583 10.4923C71.2583 9.2128 70.4488 8.27278 69.1694 8.27278C67.8899 8.27278 67.0805 9.2128 67.0805 10.4923C67.0805 11.7717 67.8899 12.7117 69.1694 12.7117C70.4488 12.7117 71.2583 11.7978 71.2583 10.4923ZM62.4587 8.32501C62.6415 8.69057 62.7198 9.08224 62.7198 9.50002C62.7198 10.4923 62.1976 11.4062 61.362 12.1112C62.5109 12.6595 63.1898 13.9912 63.1898 15.2446C63.1898 17.5946 61.2837 19.1613 58.3853 19.1613C55.4869 19.1613 53.5808 17.6207 53.5808 15.2446C53.5547 13.939 54.2597 12.7379 55.4086 12.1112C54.5469 11.4062 54.0508 10.4923 54.0508 9.50002C54.0508 7.43722 55.6697 5.92275 58.2287 5.92275C59.7431 5.92275 60.187 6.18386 61.0487 6.18386C61.6232 6.20998 62.2237 6.05331 62.7198 5.73997C62.9026 5.63552 63.0854 5.55719 63.2943 5.55719C63.6337 5.55719 63.8165 5.89664 63.8165 6.31442C63.8948 7.22832 63.3204 8.03778 62.4587 8.32501ZM60.5004 15.1662C60.5004 14.1218 59.6909 13.3906 58.4114 13.3906C57.132 13.3906 56.3225 14.0956 56.3225 15.1662C56.3225 16.1585 57.2103 16.9418 58.4114 16.9418C59.6126 16.9418 60.5004 16.1585 60.5004 15.1662ZM56.7142 9.65669C56.7403 10.5706 57.5236 11.3017 58.4637 11.2756C59.3514 11.2495 60.0304 10.5445 60.0826 9.65669C60.0826 8.71668 59.4037 8.06389 58.4114 8.06389C57.4192 8.06389 56.7142 8.69057 56.7142 9.65669ZM52.3275 10.675V13.939C52.3275 14.5657 52.0924 14.8268 51.4136 14.8268H50.4996C49.8207 14.8268 49.5857 14.5657 49.5857 13.939V10.7534C49.5857 9.94392 49.4552 9.36947 49.168 9.00391C48.8285 8.58612 48.3063 8.37723 47.7841 8.40334C47.2357 8.37723 46.7135 8.61223 46.3479 9.00391C46.0346 9.36947 45.8257 9.94392 45.8257 10.7273V13.9129C45.8257 14.5657 45.5385 14.8007 44.9118 14.8007H43.9979C43.3712 14.8007 43.084 14.5657 43.084 13.9129V6.60165C43.084 6.18386 43.2929 6.00108 43.6062 6.00108C44.0762 6.00108 44.729 6.39276 45.2251 7.14999C45.9824 6.31442 47.0529 5.84441 48.1757 5.84441C49.5074 5.84441 50.578 6.31442 51.283 7.09777C51.988 7.88111 52.3275 8.95168 52.3275 10.675ZM38.0706 3.3116C38.0706 2.47603 38.7756 1.82324 39.585 1.82324H39.6373C40.4467 1.87547 41.0734 2.58048 41.0212 3.38993C40.969 4.19939 40.2639 4.82607 39.4545 4.77384C38.6711 4.74773 38.0706 4.09494 38.0706 3.3116ZM38.2534 13.939V7.07165C38.2534 6.44498 38.4884 6.15775 39.1673 6.15775H40.0812C40.7601 6.15775 40.9951 6.41887 40.9951 7.07165V13.939C40.9951 14.5657 40.7601 14.8268 40.0812 14.8268H39.1673C38.4884 14.8268 38.2534 14.5657 38.2534 13.939ZM33.4227 13.939V5.32218C33.4227 3.15493 34.6239 1.92769 35.6422 1.92769C35.9555 1.92769 36.1644 2.13658 36.1644 2.52825V13.939C36.1644 14.5918 35.9033 14.8268 35.2505 14.8268H34.3366C33.71 14.8268 33.4227 14.5918 33.4227 13.939ZM22.1426 10.4923C22.1426 7.75055 24.2315 5.8183 26.9993 5.8183C29.7671 5.8183 31.856 7.75055 31.856 10.4923C31.856 13.234 29.7671 15.1662 26.9993 15.1662C24.2315 15.1662 22.1426 13.2079 22.1426 10.4923ZM29.0882 10.4923C29.0882 9.2128 28.2788 8.27278 26.9993 8.27278C25.7198 8.27278 24.9104 9.2128 24.9104 10.4923C24.9104 11.7717 25.7198 12.7117 26.9993 12.7117C28.2788 12.7117 29.0882 11.7978 29.0882 10.4923ZM20.7325 7.07165V14.3829C20.7325 14.8007 20.5236 14.9834 20.2103 14.9834C19.7403 14.9834 19.0875 14.5918 18.6175 13.8606C17.8864 14.6962 16.8419 15.1662 15.7191 15.1401C14.6747 15.1662 13.6824 14.8007 12.8991 14.0956C12.0896 13.3123 11.6457 12.1112 11.6457 10.3878V7.07165C11.6457 6.44498 11.8807 6.15775 12.5596 6.15775H13.4735C14.1524 6.15775 14.3874 6.41887 14.3874 7.07165V10.1528C14.3874 11.1973 14.5702 11.7456 14.9097 12.1112C15.223 12.4245 15.693 12.6073 16.1369 12.5812C16.633 12.5812 17.103 12.3984 17.4425 12.0328C17.7819 11.6673 17.9647 11.0928 17.9647 10.205V7.07165C17.9647 6.41887 18.2519 6.15775 18.8786 6.15775H19.7925C20.4453 6.15775 20.7325 6.41887 20.7325 7.07165ZM9.7657 2.52825V14.3829C9.7657 14.8007 9.55681 14.9834 9.24347 14.9834C8.77347 14.9834 8.12068 14.5918 7.65067 13.8868C7.07622 14.5657 5.9012 15.1662 4.5434 15.1662C1.82781 15.1662 0 13.1817 0 10.4923C0 7.80278 1.88003 5.8183 4.5434 5.8183C5.43119 5.8183 6.29287 6.07942 7.05011 6.57554V5.32218C7.05011 3.15493 8.27735 1.92769 9.26958 1.92769C9.58292 1.92769 9.7657 2.13658 9.7657 2.52825ZM7.05011 10.4923C7.05011 9.16058 6.11009 8.27278 4.93507 8.27278C3.76006 8.27278 2.79393 9.16058 2.79393 10.4923C2.79393 11.8239 3.73395 12.7117 4.93507 12.7117C6.1362 12.7117 7.05011 11.8501 7.05011 10.4923Z" fill="white"/>
</g>
<defs>
<clipPath id="clip0_5_1971">
<rect width="74" height="17.338" fill="white" transform="translate(0 1.82324)"/>
</clipPath>
</defs>
</svg>
