<svg width="144" height="26" viewBox="0 0 144 26" fill="none" xmlns="http://www.w3.org/2000/svg">
<path d="M1.51348 0H16.0464C17.6896 0 19.1425 0.34424 20.4035 1.0322C21.6869 1.6978 22.6889 2.61872 23.4091 3.79496C24.1298 4.9712 24.4902 6.3362 24.4902 7.88996C24.4902 9.70996 23.9723 11.2856 22.9364 12.6168C21.9006 13.9266 20.5273 14.8252 18.816 15.3135L24.6254 24.4686C24.9182 24.9127 24.9738 25.2788 24.7939 25.5674C24.6363 25.856 24.2988 26 23.7809 26C23.5329 26 23.3415 25.9558 23.2068 25.8669C23.0834 25.7433 22.9704 25.6097 22.8688 25.4675L16.6548 15.6801H9.5948C9.03528 15.6801 8.58184 15.2329 8.58184 14.6812C8.58184 14.13 9.03528 13.6828 9.5948 13.6828H16.0459C17.3069 13.6828 18.4104 13.4384 19.3557 12.9501C20.324 12.4394 21.0785 11.7515 21.6188 10.8857C22.1814 10.0204 22.4632 9.022 22.4632 7.88996C22.4632 6.73556 22.1814 5.7148 21.6188 4.82716C21.078 3.93952 20.324 3.25156 19.3557 2.76276C18.4104 2.25264 17.3069 1.99732 16.0459 1.99732H1.51348C1.24308 1.99732 1.00648 1.89748 0.8042 1.6978C0.6014 1.49812 0.5 1.26516 0.5 0.99892C0.5 0.71032 0.6014 0.46592 0.8042 0.26624C1.007 0.08892 1.24308 0 1.51348 0ZM51.3466 26C51.0544 26 50.8064 25.9116 50.6041 25.7338C50.4236 25.5341 50.3337 25.2897 50.3337 25.0011V0.99892C50.3337 0.71032 50.4236 0.47736 50.6041 0.29952C50.8069 0.09984 51.0544 0 51.3466 0C51.6394 0 51.876 0.09984 52.0564 0.29952C52.2592 0.47736 52.3601 0.71032 52.3601 0.99892V25.0011C52.3601 25.2897 52.2587 25.5341 52.0564 25.7338C51.876 25.9111 51.6394 26 51.3466 26ZM88.8215 26C88.3935 26 88.0893 25.7889 87.9094 25.3677L77.7772 1.63124C77.552 1.1206 77.5406 0.72124 77.7434 0.43264C77.9686 0.14404 78.2722 0 78.655 0C79.0829 0 79.4095 0.23296 79.6346 0.69888L88.8553 22.4713L97.9745 0.832C98.1992 0.27768 98.571 0 99.0889 0C99.4939 0 99.7644 0.1664 99.8996 0.4992C100.035 0.832 100.012 1.20952 99.832 1.63124L89.733 25.3677C89.6207 25.6121 89.4741 25.7785 89.2942 25.8669C89.1366 25.9553 88.979 26 88.8215 26ZM126.241 26C125.948 26 125.701 25.9116 125.498 25.7338C125.318 25.5341 125.228 25.2897 125.228 25.0011V0.99892C125.228 0.71032 125.318 0.47736 125.498 0.29952C125.701 0.09984 125.948 0 126.241 0H142.487C142.757 0 142.994 0.09984 143.196 0.29952C143.399 0.47736 143.5 0.71032 143.5 0.99892C143.5 1.26516 143.399 1.49812 143.196 1.6978C142.994 1.89748 142.757 1.99732 142.487 1.99732H127.254V11.9844H138.434C138.726 11.9844 138.963 12.0843 139.143 12.2845C139.346 12.4618 139.447 12.6953 139.447 12.9834C139.45 13.1198 139.424 13.2553 139.372 13.3813C139.319 13.5073 139.241 13.6211 139.143 13.7155C138.963 13.9157 138.726 14.0156 138.434 14.0156H127.254V24.0027H142.487C142.757 24.0027 142.994 24.1025 143.196 24.3022C143.399 24.5019 143.5 24.7348 143.5 25.0011C143.5 25.2897 143.399 25.5341 143.196 25.7338C143.001 25.9084 142.748 26.0034 142.487 26H126.241Z" fill="white"/>
</svg>
