<svg width="24" height="26" viewBox="0 0 24 26" fill="none" xmlns="http://www.w3.org/2000/svg">
<path fill-rule="evenodd" clip-rule="evenodd" d="M0 1.87944C0 2.73982 0.705509 3.43763 1.5754 3.43763H14.6309C16.1189 3.43763 17.3443 3.89227 18.307 4.80156C19.2697 5.71084 19.7511 6.87959 19.7511 8.30827C19.7511 9.62872 19.2697 10.711 18.3066 11.5551C17.3443 12.3779 16.1189 12.789 14.6309 12.789H8.95698C8.08664 12.789 7.38113 13.4864 7.38113 14.3477C7.38113 15.208 8.08664 15.9059 8.95698 15.9059H15.2223L20.8673 24.8674C21.2174 25.409 21.7096 25.6793 22.344 25.6793C23.0445 25.6793 23.5368 25.409 23.8211 24.8674C24.1055 24.305 24.0507 23.7095 23.6572 23.0819L18.6353 15.0939C19.992 14.488 21.0643 13.6005 21.8518 12.4317C22.6397 11.2413 23.0337 9.86691 23.0337 8.30827C23.0337 6.72789 22.6723 5.34269 21.9505 4.1522C21.2504 2.96125 20.266 2.03069 18.9967 1.35959C17.7274 0.666763 16.2725 0.320801 14.6309 0.320801H1.57585C0.705509 0.320801 0 1.01816 0 1.87944Z" fill="white"/>
</svg>
