<svg width="100" height="21" viewBox="0 0 100 21" fill="none" xmlns="http://www.w3.org/2000/svg">
<g clip-path="url(#clip0_5_1980)">
<path d="M26.7306 3.15869C22.7383 3.15869 19.5047 6.45686 19.5047 10.492C19.5047 14.5272 22.7548 17.8254 26.7306 17.8254C30.7064 17.8254 33.9565 14.5272 33.9565 10.492C33.9565 6.45686 30.706 3.15869 26.7306 3.15869ZM31.3994 10.492C31.3994 13.1038 29.3042 15.2301 26.7306 15.2301C24.157 15.2301 22.0618 13.1038 22.0618 10.492C22.0618 7.88026 24.1573 5.75396 26.7306 5.75396C29.3039 5.75396 31.3994 7.88026 31.3994 10.492ZM11.7347 3.44322H0.648511C0.628838 3.44327 0.609368 3.44722 0.591229 3.45484C0.573089 3.46245 0.55664 3.47359 0.542831 3.4876C0.529022 3.50162 0.518128 3.51823 0.510778 3.53648C0.503428 3.55473 0.499769 3.57425 0.500011 3.59392V5.83756C0.500011 5.92116 0.566011 5.98789 0.648511 5.98789H4.93778V17.3733C4.93778 17.4569 5.00378 17.524 5.08628 17.524H7.29691C7.31655 17.5239 7.33599 17.52 7.35411 17.5124C7.37222 17.5048 7.38866 17.4937 7.40246 17.4797C7.41626 17.4657 7.42717 17.4492 7.43454 17.431C7.44191 17.4128 7.4456 17.3933 7.44541 17.3736V5.98789H11.7347C11.7544 5.98784 11.7738 5.9839 11.792 5.97628C11.8101 5.96866 11.8265 5.95753 11.8404 5.94351C11.8542 5.9295 11.8651 5.91289 11.8724 5.89464C11.8798 5.87639 11.8834 5.85686 11.8832 5.83719V3.59392C11.8834 3.57428 11.8797 3.5548 11.8723 3.53659C11.8649 3.51838 11.854 3.50182 11.8402 3.48784C11.8264 3.47387 11.81 3.46276 11.7919 3.45517C11.7738 3.44757 11.7543 3.44327 11.7347 3.44322ZM99.3515 14.9958H94.0887V3.61079C94.089 3.59115 94.0853 3.57165 94.078 3.55343C94.0707 3.5352 94.0598 3.51861 94.0461 3.5046C94.0323 3.49059 94.0159 3.47945 93.9978 3.47181C93.9797 3.46417 93.9603 3.46019 93.9406 3.46009H91.73C91.7103 3.46014 91.6909 3.46407 91.6728 3.47167C91.6547 3.47926 91.6382 3.49037 91.6244 3.50434C91.6106 3.51832 91.5997 3.53488 91.5924 3.55309C91.585 3.5713 91.5813 3.59078 91.5815 3.61042V17.3898C91.5815 17.4741 91.6475 17.5408 91.73 17.5408H99.3515C99.3712 17.5408 99.3907 17.5368 99.4088 17.5292C99.4269 17.5216 99.4434 17.5105 99.4572 17.4964C99.471 17.4824 99.4819 17.4658 99.4893 17.4476C99.4966 17.4293 99.5003 17.4098 99.5 17.3901V15.1465C99.4835 15.0629 99.4175 14.9958 99.3515 14.9958ZM81.1879 17.323L75.315 3.52719C75.2985 3.47696 75.2325 3.44322 75.183 3.44322H72.7249C72.6589 3.44322 72.6094 3.47696 72.5929 3.52719L66.7035 17.323C66.687 17.3733 66.687 17.4235 66.72 17.4569C66.753 17.4906 66.786 17.524 66.8355 17.524L69.1451 17.5071C69.1946 17.5071 69.2607 17.4741 69.2771 17.4235L73.9459 6.67502L78.6147 17.4239C78.6308 17.4741 78.6968 17.5075 78.7463 17.5075L81.0559 17.5243C81.1054 17.5243 81.1549 17.5075 81.1714 17.4572C81.2044 17.4242 81.2044 17.3733 81.1879 17.323ZM56.2278 3.44322H54.0172C53.9975 3.44327 53.9781 3.44722 53.9599 3.45484C53.9418 3.46245 53.9253 3.47359 53.9115 3.4876C53.8977 3.50162 53.8868 3.51823 53.8795 3.53648C53.8721 3.55473 53.8685 3.57425 53.8687 3.59392V13.154L46.3293 3.52719C46.321 3.50302 46.3055 3.48199 46.2848 3.46697C46.2642 3.45194 46.2394 3.44365 46.2138 3.44322H44.0032C43.9835 3.44327 43.964 3.44722 43.9459 3.45484C43.9278 3.46245 43.9113 3.47359 43.8975 3.4876C43.8837 3.50162 43.8728 3.51823 43.8654 3.53648C43.8581 3.55473 43.8544 3.57425 43.8547 3.59392V17.3733C43.8547 17.4569 43.9207 17.524 44.0032 17.524H46.2138C46.2335 17.5239 46.2529 17.52 46.271 17.5124C46.2891 17.5048 46.3056 17.4937 46.3194 17.4797C46.3332 17.4657 46.3441 17.4492 46.3514 17.431C46.3588 17.4128 46.3625 17.3933 46.3623 17.3736V7.83002L53.9182 17.4737L53.9347 17.4906L53.9512 17.5071C53.9512 17.5071 53.9677 17.5071 53.9677 17.524H56.2773C56.297 17.5239 56.3164 17.52 56.3345 17.5124C56.3527 17.5048 56.3691 17.4937 56.3829 17.4797C56.3967 17.4657 56.4076 17.4492 56.415 17.431C56.4223 17.4128 56.426 17.3933 56.4258 17.3736V3.59392C56.3763 3.50959 56.3103 3.44286 56.2278 3.44286V3.44322Z" fill="white"/>
</g>
<defs>
<clipPath id="clip0_5_1980">
<rect width="99" height="14.6667" fill="white" transform="translate(0.5 3.15869)"/>
</clipPath>
</defs>
</svg>
