<svg width="81" height="21" viewBox="0 0 81 21" fill="none" xmlns="http://www.w3.org/2000/svg">
<g clip-path="url(#clip0_5_1983)">
<path d="M9.43053 0H0.64978V21L9.43053 0ZM15.609 0H24.378V21L15.609 0ZM12.519 7.73954L18.1088 21H14.4418L12.7724 16.778H8.67928L12.519 7.73954ZM38.7031 13.3556L39.7385 16.3241C39.7736 16.3973 39.8249 16.4324 39.9157 16.4324H41.9073C42.0157 16.4324 42.0333 16.3812 42.0157 16.2713L37.9021 4.84874C37.886 4.75649 37.8684 4.73891 37.7761 4.73891H35.3056C35.2368 4.73891 35.1973 4.79163 35.1973 4.86485C35.1621 5.46527 35.1109 5.64979 35.0362 5.82699L31.3692 16.2538C31.3531 16.3812 31.3927 16.4324 31.4952 16.4324H33.2745C33.3828 16.4324 33.4356 16.3973 33.4751 16.2889L34.4533 13.3542L38.7031 13.3556ZM35.0201 11.4138C35.5575 9.78828 36.2663 7.70732 36.5533 6.51674H36.5694C36.9238 7.76443 37.76 10.2364 38.1364 11.4138H35.0201ZM47.3038 16.6096C48.4607 16.6119 49.6057 16.3761 50.6676 15.9169C50.7584 15.8833 50.7759 15.8437 50.7759 15.7559C50.7329 15.3785 50.708 14.9992 50.7012 14.6195V3.86464C50.7012 3.79582 50.7012 3.76213 50.6148 3.76213H48.6759C48.6027 3.76213 48.5676 3.79582 48.5676 3.88661V7.53159C48.3135 7.49914 48.0578 7.48203 47.8017 7.48033C44.6722 7.48033 42.7494 9.54519 42.7494 12.1241C42.7494 15.1159 44.7234 16.6096 47.3038 16.6096ZM48.5676 14.618C48.2468 14.7205 47.8925 14.7615 47.5322 14.7615C46.1132 14.7615 44.9519 13.9605 44.9519 12.0157C44.9519 10.2935 46.1483 9.2772 47.7328 9.2772C48.0521 9.2772 48.3333 9.31088 48.5676 9.40167V14.618ZM56.9617 7.48033C54.2906 7.48033 52.6372 9.52761 52.6372 12.0567C52.6372 14.3149 53.9538 16.6096 56.9222 16.6096C59.4337 16.6096 61.1954 14.7615 61.1954 11.9981C61.1954 9.5613 59.7002 7.48033 56.9617 7.48033ZM56.8533 9.27573C58.3632 9.27573 59.0046 10.5747 59.0046 12.0567C59.0046 13.8872 58.06 14.7952 56.9617 14.7952C55.6071 14.7952 54.8061 13.6573 54.8061 12.0157C54.8061 10.3287 55.6584 9.27573 56.8533 9.27573ZM63.2002 3.76067C63.127 3.76067 63.0743 3.79582 63.0743 3.88661V16.0605C63.0743 16.1117 63.1255 16.204 63.2002 16.2215C64.0642 16.4834 64.9626 16.6143 65.8655 16.6096C68.5029 16.6096 71.0657 14.9738 71.0657 11.6789C71.0657 9.29184 69.4299 7.48033 66.8671 7.48033C66.3173 7.47665 65.7705 7.56119 65.2475 7.73075L65.2255 3.90418C65.2255 3.77824 65.1904 3.76067 65.0644 3.76067H63.2002ZM68.8749 11.8956C68.8749 13.8697 67.5247 14.7952 66.0661 14.7952C65.763 14.7952 65.495 14.7791 65.2475 14.7044V9.51004C65.5286 9.40167 65.8655 9.31088 66.4893 9.31088C67.8966 9.31088 68.8749 10.2027 68.8749 11.8956ZM78.3029 12.5356C79.1728 12.5356 79.8874 12.5195 80.1335 12.4623C80.2257 12.4448 80.2594 12.4111 80.277 12.3364C80.3282 12.1416 80.3502 11.736 80.3502 11.2381C80.3502 9.54519 79.3324 7.48033 76.7008 7.48033C74.0121 7.48033 72.5199 9.67113 72.5199 12.1416C72.5199 14.3324 73.6753 16.6082 76.9132 16.6082C78.1257 16.6082 78.9092 16.4149 79.5843 16.0956C79.6531 16.0605 79.6868 16.0033 79.6868 15.9008V14.4188C79.6868 14.3324 79.6356 14.3163 79.5843 14.35C78.9107 14.6356 78.1784 14.7791 77.3759 14.7791C75.563 14.7791 74.7399 13.7774 74.6872 12.537L78.3029 12.5356ZM74.6872 11.0038C74.8307 10.1339 75.3799 9.18933 76.61 9.18933C77.9661 9.18933 78.3205 10.3287 78.3205 10.8441V10.9862C78.2458 11.0038 78.0173 11.0038 77.3422 11.0038H74.6872Z" fill="white"/>
</g>
<defs>
<clipPath id="clip0_5_1983">
<rect width="79.7004" height="21" fill="white" transform="translate(0.64978)"/>
</clipPath>
</defs>
</svg>
