<svg version="1.1" id="Layer_1" xmlns="http://www.w3.org/2000/svg" x="0" y="0" viewBox="0 0 2232 2500" xml:space="preserve"><style>.st0{fill:#3ddb85}</style><path class="st0" d="M764 1518.5c86.2 0 156 69.9 156 156V2344c0 86.2-69.9 156-156 156-86.2 0-156-69.9-156-156v-669.4c0-86.2 69.8-156.1 156-156.1z"/><path class="st0" d="M407.8 713.7c-.5 5.9-1 11.9-1 17.9v1014.2c0 109.1 86.3 196.9 193.5 196.9h1031.4c107.2 0 193.5-87.9 193.5-196.9V731.7c0-6-.2-12.1-.7-17.9l-1416.7-.1z"/><path class="st0" d="M1468 1518.5c86.2 0 156 69.9 156 156V2344c0 86.2-69.9 156-156 156-86.2 0-156-69.9-156-156v-669.4c0-86.2 69.8-156.1 156-156.1zM156.1 804c86.2 0 156 69.9 156 156v669.4c0 86.2-69.9 156-156 156-86.2 0-156-69.9-156-156V960c-.1-86.1 69.8-156 156-156zm1919.8 0c86.2 0 156 69.9 156 156v669.4c0 86.2-69.9 156-156 156-86.2 0-156-69.9-156-156V960c0-86.1 69.9-156 156-156zM412.3 647.1c4.3-311.5 276.2-566.9 625.3-600.6h156.8c349 33.7 620.9 289.1 625.3 600.6H412.3z"/><path d="m466.6 16.4 164.6 285.1M1765.4 16.4l-164.6 285.1" fill="none" stroke="#3ddb85" stroke-width="32.872" stroke-linecap="round" stroke-linejoin="round" stroke-miterlimit="43.83"/><path d="M906.4 367.9c.1 43.5-35.9 78.9-80.5 79.1-44.6.1-80.8-35.1-81-78.6v-.4c-.1-43.6 35.9-78.9 80.5-79.1 44.6-.1 80.8 35.1 81 78.6v.4zm602.6 0c.1 43.5-35.9 78.9-80.5 79.1-44.6.1-80.8-35.1-81-78.6v-.4c-.1-43.6 35.9-78.9 80.5-79.1 44.6-.1 80.8 35.1 81 78.6v.4z" fill="#303030"/></svg>