<svg width="100" height="21" viewBox="0 0 100 21" fill="none" xmlns="http://www.w3.org/2000/svg">
<g clip-path="url(#clip0_5_1986)">
<path d="M4.09996 9.94901C4.06394 9.90182 4.01634 9.86474 3.96178 9.84135C3.90721 9.81796 3.84753 9.80907 3.78852 9.81552C3.7295 9.82197 3.67316 9.84356 3.62494 9.87819C3.57672 9.91282 3.53826 9.95932 3.51329 10.0132L0.53777 15.9642C0.510591 16.0184 0.497705 16.0786 0.500335 16.1392C0.502965 16.1997 0.521024 16.2586 0.552798 16.3102C0.584571 16.3618 0.629006 16.4044 0.681885 16.434C0.734764 16.4637 0.794333 16.4793 0.854939 16.4794H4.9983C5.06537 16.4807 5.13135 16.4623 5.18805 16.4264C5.24476 16.3906 5.2897 16.3389 5.31731 16.2777C6.21015 14.4444 5.66931 11.6265 4.09996 9.94901Z" fill="white"/>
<path d="M6.28347 4.54441C5.5417 5.68552 5.10943 6.99991 5.02907 8.35855C4.94872 9.71719 5.22305 11.0734 5.82513 12.294L7.83264 16.2778C7.86192 16.337 7.90709 16.3869 7.96311 16.4219C8.01913 16.4568 8.08378 16.4755 8.14981 16.4758H12.2932C12.3513 16.471 12.4074 16.4525 12.4568 16.4217C12.5063 16.3909 12.5477 16.3487 12.5776 16.2987C12.6076 16.2487 12.6252 16.1923 12.6289 16.1341C12.6327 16.076 12.6226 16.0178 12.5993 15.9643L6.88847 4.54441C6.86112 4.48738 6.81821 4.43925 6.76469 4.40557C6.71116 4.37188 6.64921 4.354 6.58597 4.354C6.52273 4.354 6.46077 4.37188 6.40725 4.40557C6.35373 4.43925 6.31082 4.48738 6.28347 4.54441Z" fill="white"/>
<path d="M93.8185 10.8877L96.827 16.4794H99.5V6.4987H97.3733V12.9393L96.5685 11.0711L94.1521 6.4987H90.7953V16.4794H92.9219V8.86739L93.8185 10.8877ZM74.9441 6.4987H77.2688V16.4794H74.9441V6.4987ZM72.262 13.5278C72.262 11.7806 71.3361 10.9611 68.7218 10.3982C67.2789 10.0792 66.9306 9.76023 66.9306 9.29822C66.9306 8.72072 67.4458 8.47688 68.3973 8.47688C69.5523 8.47688 70.6926 8.82705 71.7706 9.31289V7.03037C70.7354 6.55902 69.6079 6.32536 68.4706 6.34654C65.8874 6.34654 64.5509 7.47038 64.5509 9.30922C64.5509 10.7759 65.2347 11.9511 67.9078 12.4681C69.5028 12.8018 69.8383 13.0603 69.8383 13.5919C69.8383 14.1236 69.5028 14.4426 68.3716 14.4426C67.0138 14.4178 65.6832 14.0582 64.4977 13.3958V15.7956C65.3026 16.1898 66.3659 16.6298 68.3478 16.6298C71.1418 16.6298 72.251 15.3849 72.251 13.5314M62.5856 13.5278C62.5856 11.7806 61.6689 10.9611 59.0472 10.3982C57.6044 10.0792 57.2542 9.76023 57.2542 9.29822C57.2542 8.72072 57.7712 8.47688 58.7209 8.47688C59.8759 8.47688 61.0144 8.82705 62.0924 9.31289V7.03037C61.0572 6.55902 59.9296 6.32536 58.7924 6.34654C56.211 6.34654 54.8727 7.47038 54.8727 9.30922C54.8727 10.7759 55.5565 11.9511 58.2314 12.4681C59.8264 12.8018 60.16 13.0603 60.16 13.5919C60.16 14.1236 59.8264 14.4426 58.6934 14.4426C57.3356 14.4178 56.0049 14.0582 54.8195 13.3958V15.7956C55.6262 16.1898 56.6895 16.6298 58.6695 16.6298C61.4654 16.6298 62.5727 15.3849 62.5727 13.5314M39.1682 14.3216V6.4987H36.8289V16.4794H41.6066L42.3582 14.3216H39.1682ZM32.3115 16.4794V8.65472H35.0762V6.4987H27.389V8.65472H29.9721V16.4794H32.3115ZM23.9973 6.4987H20.9319L17.4485 16.4794H20.1161L20.6111 14.7983C21.826 15.1553 23.1179 15.1553 24.3328 14.7983L24.8259 16.4794H27.4843L23.9973 6.4987ZM22.4646 12.9998C22.0302 13.0004 21.598 12.9386 21.1812 12.8164L22.4646 8.46038L23.7479 12.8164C23.3311 12.9385 22.8989 13.0003 22.4646 12.9998ZM49.842 6.4987H46.7766L43.2932 16.4794H45.9516L46.4466 14.7983C47.6615 15.1553 48.9534 15.1553 50.1683 14.7983L50.6615 16.4794H53.3198L49.842 6.4987ZM48.3093 12.9998C47.8749 13.0005 47.4427 12.9388 47.0259 12.8164L48.3093 8.46038L49.5926 12.8164C49.1759 12.9388 48.7436 13.0006 48.3093 12.9998ZM85.6436 6.4987H82.5782L79.0948 16.4794H81.7532L82.2464 14.7983C83.4612 15.1553 84.7532 15.1553 85.9681 14.7983L86.4612 16.4794H89.1214L85.6436 6.4987ZM84.1109 12.9998C83.6765 13.0003 83.2444 12.9385 82.8275 12.8164L84.1109 8.46038L85.3942 12.8164C84.9774 12.9385 84.5452 13.0003 84.1109 12.9998Z" fill="white"/>
</g>
<defs>
<clipPath id="clip0_5_1986">
<rect width="99" height="12.2759" fill="white" transform="translate(0.5 4.354)"/>
</clipPath>
</defs>
</svg>
