<svg width="61" height="21" viewBox="0 0 61 21" fill="none" xmlns="http://www.w3.org/2000/svg">
<g clip-path="url(#clip0_5_1952)">
<path d="M25.9587 10.6882C25.9587 13.552 23.7182 15.6624 20.9687 15.6624C18.2192 15.6624 15.9789 13.5522 15.9789 10.6882C15.9789 7.80423 18.2194 5.71396 20.9689 5.71396C23.7182 5.71396 25.9587 7.80423 25.9587 10.6882ZM23.7742 10.6882C23.7742 8.89861 22.4758 7.6741 20.9687 7.6741C19.4617 7.6741 18.1631 8.89861 18.1631 10.6882C18.1631 12.4599 19.4617 13.7023 20.9687 13.7023C22.4758 13.7023 23.7742 12.4574 23.7742 10.6882ZM36.7234 10.6882C36.7234 13.552 34.4829 15.6624 31.7334 15.6624C28.9841 15.6624 26.7436 13.5522 26.7436 10.6882C26.7436 7.80649 28.9841 5.71396 31.7334 5.71396C34.4829 5.71396 36.7234 7.80423 36.7234 10.6882ZM34.5389 10.6882C34.5389 8.89861 33.2405 7.6741 31.7334 7.6741C30.2264 7.6741 28.9278 8.89861 28.9278 10.6882C28.9278 12.4599 30.2264 13.7023 31.7334 13.7023C33.2405 13.7023 34.5389 12.4574 34.5389 10.6882ZM47.0396 6.01444V14.9448C47.0396 18.6184 44.8732 20.1185 42.3121 20.1185C39.9013 20.1185 38.4501 18.5061 37.9029 17.1874L39.8048 16.3957C40.1435 17.2052 40.9733 18.1607 42.3099 18.1607C43.9492 18.1607 44.9652 17.1492 44.9652 15.2453V14.5298H44.8888C44.3999 15.133 43.458 15.6601 42.2694 15.6601C39.7824 15.6601 37.5037 13.4937 37.5037 10.706C37.5037 7.89821 39.7824 5.71396 42.2694 5.71396C43.4558 5.71396 44.3976 6.24105 44.8888 6.82642H44.9652V6.0167H47.0396V6.01444ZM45.1199 10.7062C45.1199 8.95464 43.9514 7.6741 42.4646 7.6741C40.9575 7.6741 39.695 8.95464 39.695 10.706C39.695 12.4398 40.9575 13.7023 42.4646 13.7023C43.9514 13.7023 45.1199 12.4398 45.1199 10.7062ZM50.4597 0.780191V15.3574H48.3292V0.780191H50.4597ZM58.7618 12.3255L60.4574 13.4555C59.9099 14.2653 58.5914 15.6601 56.3127 15.6601C53.4871 15.6601 51.3767 13.4759 51.3767 10.6859C51.3767 7.72787 53.5049 5.7117 56.0683 5.7117C58.6497 5.7117 59.9122 7.76605 60.325 8.87602L60.5513 9.44129L53.9019 12.1953C54.4111 13.1932 55.2028 13.7023 56.3127 13.7023C57.4252 13.7023 58.1967 13.1551 58.7618 12.3252V12.3255ZM53.5431 10.5357L57.9882 8.68986C57.7438 8.06879 57.0081 7.63591 56.1424 7.63591C55.0322 7.63591 53.4871 8.61598 53.5431 10.5357ZM7.91422 9.39407V7.28392H15.0257C15.0953 7.65173 15.1312 8.08664 15.1312 8.55769C15.1312 10.141 14.6983 12.0989 13.3035 13.4937C11.9465 14.9067 10.213 15.6604 7.9167 15.6604C3.66003 15.6601 0.0806885 12.1928 0.0806885 7.93617C0.0806885 3.67995 3.66003 0.212891 7.9167 0.212891C10.2713 0.212891 11.9488 1.13693 13.2092 2.34111L11.7202 3.83019C10.8165 2.98252 9.59194 2.32326 7.91444 2.32326C4.80615 2.32326 2.37497 4.82811 2.37497 7.93639C2.37497 11.0447 4.80593 13.55 7.91444 13.55C9.93061 13.55 11.0788 12.7405 11.8144 12.0046C12.4108 11.4082 12.8033 10.556 12.958 9.39226L7.91444 9.39452L7.91422 9.39407Z" fill="white"/>
</g>
<defs>
<clipPath id="clip0_5_1952">
<rect width="61" height="20.7852" fill="white" transform="translate(0 0.107422)"/>
</clipPath>
</defs>
</svg>
