<svg width="76" height="15" viewBox="0 0 76 15" fill="none" xmlns="http://www.w3.org/2000/svg">
<path d="M25.8452 0.779863H21.7836V6.12114H17.5556V0.780143H13.4939V14.2187H17.5556V8.93234H21.7836V14.2187H25.8452V0.779583V0.779863ZM39.9743 11.5181V0.779863H35.9126V14.2185H43.2568L43.8674 11.5181H39.9743ZM32.9096 0.779863H28.848V14.2185H32.9096V0.779863ZM49.3759 0.779863H45.3159V14.2185H49.3759V0.779863ZM69.4004 4.20986C69.4004 3.47822 70.1247 3.14026 71.2915 3.14026C72.5716 3.14026 73.9632 3.42278 74.9088 3.81786L74.5759 0.892423C73.5169 0.667023 72.5716 0.499023 70.8488 0.499023C67.5664 0.499023 65.3406 1.80718 65.3406 4.54782C65.3406 9.2703 71.6846 8.3155 71.6846 10.5079C71.6846 11.3501 71.0703 11.7987 69.5689 11.7987C68.2358 11.7987 66.1745 11.3501 64.9511 10.7313L65.3975 13.8253C66.6208 14.2759 68.2887 14.4993 69.6255 14.4993C73.0177 14.4993 75.7992 13.3745 75.7992 9.9997C75.7992 5.5043 69.4004 6.34682 69.4004 4.20986ZM57.9436 11.0139C61.7233 11.0139 64.1173 9.0449 64.1173 5.61518C64.1173 1.84918 61.559 0.499023 57.3856 0.499023C55.7728 0.499023 53.8251 0.611583 52.4352 0.779863V14.2185H56.4968V11.0141L57.9436 11.0139ZM60.1125 5.67258C60.1125 7.41418 59.2784 8.59634 57.1624 8.59634H56.4968V3.04254C56.7185 3.03167 56.9405 3.02718 57.1624 3.0291C59.165 3.0291 60.1125 3.98418 60.1125 5.67258ZM5.70707 11.0139C9.48903 11.0139 11.8811 9.0449 11.8811 5.61518C11.8811 1.84918 9.32243 0.499023 5.15127 0.499023C3.53651 0.499023 1.59051 0.611583 0.198914 0.779863V14.2185H4.26059V11.0141L5.70707 11.0139ZM7.87791 5.67258C7.87791 7.41418 7.04211 8.59634 4.92811 8.59634H4.26059V3.04254C4.48292 3.03166 4.70552 3.02718 4.92811 3.0291C6.93067 3.0291 7.87791 3.98418 7.87791 5.67258Z" fill="white"/>
</svg>
