<svg width="83" height="15" viewBox="0 0 83 15" fill="none" xmlns="http://www.w3.org/2000/svg">
<path d="M3.32 4.38882V3.72482C3.32 3.39282 3.652 3.06082 4.316 3.06082C4.98 3.06082 5.312 3.39282 5.312 4.05682V4.72082H8.3V3.72482C8.3 1.06882 5.976 0.736816 4.316 0.736816C2.324 0.736816 0.332 1.40082 0.332 3.39282V5.05282C0.996 7.37682 4.98 8.04082 5.644 9.70082V10.6968C5.644 11.0288 5.312 11.3608 4.648 11.3608C3.984 11.3608 3.32 11.0288 3.32 10.3648V9.36882H0V10.3648C0 13.0208 1.992 13.6848 4.316 13.6848C6.308 13.6848 8.3 13.0208 8.632 11.0288V9.03682C7.968 6.71282 3.652 6.04882 3.32 4.38882ZM41.832 4.38882V3.72482C41.832 3.39282 42.164 3.06082 42.828 3.06082C43.492 3.06082 43.824 3.39282 43.824 4.05682V4.72082H46.812V4.05682C46.812 1.40082 44.488 1.06882 42.828 1.06882C40.836 1.06882 39.176 1.73282 38.844 3.72482V5.38482C39.508 7.70882 43.492 8.37282 44.156 10.0328V11.0288C44.156 11.3608 43.824 11.6928 43.16 11.6928C42.496 11.6928 41.832 11.3608 41.832 10.6968V9.70082H38.844V10.6968C38.844 13.3528 40.836 14.0168 43.16 14.0168C45.152 14.0168 47.144 13.3528 47.144 11.3608V9.36882C46.48 6.71282 42.164 6.04882 41.832 4.38882ZM68.724 11.0288L66.068 1.40082H61.752V13.0208H64.74L64.408 3.06082L67.396 13.0208H71.712V1.40082H68.724V11.0288ZM12.948 1.40082L10.624 13.3528H13.944L15.604 2.39682L17.264 13.3528H20.584L18.26 1.40082H12.948ZM30.544 1.40082L28.884 10.6968L27.556 1.40082H22.576L22.244 13.3528H25.232V2.39682L27.224 13.3528H30.212L32.204 2.39682V13.3528H35.192L34.86 1.40082H30.544ZM58.1 1.40082H55.112V10.3648C55.112 10.6968 54.78 11.3608 54.116 11.3608C53.452 11.3608 53.12 10.6968 53.12 10.3648V1.40082H50.132V10.6968C50.464 13.0208 52.124 13.6848 54.116 13.6848C56.44 13.6848 58.1 13.0208 58.1 10.6968V1.40082ZM78.684 6.71282V8.37282H80.012V10.3648C80.012 10.6968 79.68 11.3608 78.684 11.3608C77.688 11.3608 77.688 10.6968 77.356 10.3648V4.05682C77.356 3.72482 77.688 3.06082 78.684 3.06082C79.68 3.06082 79.68 3.72482 80.012 4.05682V5.05282H83V4.05682C82.668 1.73282 81.008 1.06882 78.684 1.06882C76.692 1.06882 74.7 1.73282 74.368 4.05682V10.3648C74.7 12.6888 76.36 13.3528 78.684 13.3528C80.676 13.3528 82.668 12.6888 83 10.3648V6.38082H78.684V6.71282Z" fill="white"/>
</svg>
