<svg width="98" height="21" viewBox="0 0 98 21" fill="none" xmlns="http://www.w3.org/2000/svg">
<g clip-path="url(#clip0_5_1977)">
<path d="M30.9848 8.56662C30.4516 8.06369 29.8422 7.8964 29.1261 7.8964C28.243 7.8964 27.7558 8.17082 27.7558 8.64279C27.7558 9.13042 28.1971 9.40448 29.1567 9.46499C30.5733 9.55682 32.3708 9.87645 32.3708 11.8718C32.3708 13.1973 31.2895 14.3391 29.1418 14.3391C27.9537 14.3391 26.7652 14.1412 25.6689 12.999L26.5826 11.6736C27.1158 12.268 28.3345 12.7097 29.172 12.725C29.8729 12.7403 30.5281 12.3747 30.5281 11.8262C30.5281 11.3084 30.101 11.0952 29.035 11.0339C27.6184 10.9272 25.9277 10.4096 25.9277 8.70365C25.9277 6.96742 27.7252 6.35806 29.0959 6.35806C30.269 6.35806 31.1524 6.58657 32.0206 7.34826L30.9848 8.56662ZM33.1855 6.54101V14.0807H35.0435V6.54101H33.1855ZM35.2115 4.45418C35.2115 5.9014 33.0179 5.9014 33.0179 4.45418C33.0179 3.00696 35.2115 3.00696 35.2115 4.45418ZM41.2577 14.0807V10.0594C41.2577 9.06955 40.7402 8.17082 39.7197 8.17082C38.7142 8.17082 38.1202 9.06955 38.1202 10.0594V14.0807H36.2622V6.55632H37.9831L38.1202 7.46999C38.5163 6.7083 39.3844 6.43423 40.1002 6.43423C40.9989 6.43423 41.8973 6.79977 42.3241 7.83589C42.9943 6.76916 43.8624 6.46484 44.8373 6.46484C46.9697 6.46484 48.0208 7.77467 48.0208 10.0291V14.0807H46.1625V10.0291C46.1625 9.03894 45.751 8.20108 44.7458 8.20108C43.7407 8.20108 43.1164 9.06955 43.1164 10.059V14.0807H41.2577ZM55.5288 10.3335C55.5288 9.16067 54.7369 8.20143 53.3968 8.20143C52.0563 8.20143 51.2644 9.16067 51.2644 10.3335C51.2644 11.5066 52.1329 12.4662 53.3968 12.4662C54.661 12.4662 55.5288 11.5066 55.5288 10.3335ZM49.2384 17.2179V6.57126H50.9747L51.0967 7.60703C51.6758 6.76916 52.681 6.40398 53.5338 6.40398C55.8492 6.40398 57.3875 8.12491 57.3875 10.3335C57.3875 12.5267 56.0011 14.263 53.595 14.263C52.8031 14.263 51.6296 14.0199 51.0967 13.1973V17.2179H49.2384ZM60.0524 3.43372V14.0807H58.2093V3.43372H60.0524ZM66.866 9.45004C66.7439 8.4755 65.9825 7.98752 64.9158 7.98752C63.9107 7.98752 63.0881 8.47515 62.814 9.4504H66.866V9.45004ZM62.7834 10.9884C62.9052 11.9177 63.7128 12.5879 65.0229 12.5879C65.7085 12.5879 66.6065 12.3288 67.0332 11.8868L68.2214 13.0599C67.4294 13.8825 66.1345 14.2783 64.992 14.2783C62.4029 14.2783 60.8642 12.6791 60.8642 10.2726C60.8642 7.98752 62.4182 6.34311 64.8553 6.34311C67.3685 6.34311 68.9371 7.8964 68.6478 10.9884H62.7834ZM76.3786 13.1211C75.5101 13.9739 74.5961 14.3089 73.4845 14.3089C71.3066 14.3089 69.4938 12.999 69.4938 10.3335C69.4938 7.66825 71.3066 6.35842 73.4845 6.35842C74.5502 6.35842 75.3727 6.66274 76.1957 7.46999L75.0229 8.70365C74.5811 8.30786 74.0327 8.1096 73.5151 8.1096C72.2658 8.1096 71.3521 9.02364 71.3521 10.3335C71.3521 11.7654 72.327 12.5267 73.4845 12.5267C74.0789 12.5267 74.6723 12.3594 75.1296 11.9024L76.3786 13.1211ZM79.0331 3.43372V14.0807H77.1905V3.43372H79.0331ZM82.1091 6.57126V10.5008C82.1091 11.6433 82.7338 12.5118 83.9219 12.5118C85.0644 12.5118 85.8418 11.5518 85.8418 10.4096V6.57126H87.6848V14.096H86.024L85.9023 13.0752C85.1253 13.8369 84.4099 14.2025 83.3584 14.2025C81.561 14.2025 80.2508 12.8463 80.2508 10.5164V6.57126H82.1091ZM90.8818 10.3185C90.8818 11.6736 91.8876 12.5267 93.0597 12.5267C94.2485 12.5267 95.1928 11.628 95.1928 10.3182C95.1928 8.96242 94.2485 8.12491 93.0597 8.12491C91.8876 8.12491 90.8818 9.00869 90.8818 10.3185ZM90.7604 3.43372V7.59208C91.2021 6.81508 92.4361 6.38903 93.2277 6.38903C95.4213 6.38903 97.0508 7.72876 97.0508 10.3185C97.0508 12.7858 95.3904 14.248 93.1822 14.248C92.2681 14.248 91.3395 13.9437 90.7604 13.045L90.6387 14.0807H88.9024V3.43372H90.7604ZM10.3599 20.8477C9.85912 20.8518 9.36589 20.7251 8.9291 20.48L2.37994 16.6701C1.94506 16.4178 1.58402 16.0557 1.33293 15.6201C1.08183 15.1845 0.94948 14.6906 0.949097 14.1879L0.949097 6.64174C0.950785 6.14022 1.08376 5.64788 1.33479 5.2137C1.58581 4.77952 1.94615 4.41863 2.37994 4.16694L8.9291 0.382671C9.36486 0.131953 9.8588 0 10.3615 0C10.8643 0 11.3582 0.131953 11.794 0.382671L18.3542 4.16694C18.7889 4.41876 19.1501 4.78008 19.4018 5.2149C19.6534 5.64973 19.7868 6.1429 19.7886 6.6453V14.2025C19.7849 14.703 19.6507 15.194 19.3991 15.6268C19.1475 16.0596 18.7874 16.4192 18.3542 16.6701L11.794 20.4654C11.3561 20.7109 10.8616 20.8377 10.3596 20.8331V20.8477H10.3599ZM2.80208 14.2025C2.80269 14.3796 2.8495 14.5536 2.93789 14.7071C3.02627 14.8607 3.15318 14.9885 3.30608 15.078L9.85523 18.8766C10.0082 18.9658 10.1821 19.0128 10.3592 19.0128C10.5363 19.0128 10.7103 18.9658 10.8632 18.8766L17.4124 15.0777C17.5657 14.9888 17.693 14.8611 17.7815 14.7075C17.8699 14.5539 17.9165 14.3797 17.9164 14.2025V6.64174C17.9166 6.46496 17.8702 6.29126 17.7817 6.13819C17.6933 5.98513 17.566 5.85814 17.4127 5.77006L10.8636 1.99006C10.7107 1.90088 10.5368 1.8539 10.3598 1.8539C10.1827 1.8539 10.0089 1.90088 9.85594 1.99006L3.30644 5.7697C3.1536 5.85831 3.02665 5.98542 2.93823 6.13835C2.8498 6.29129 2.80298 6.46472 2.80244 6.64138V14.2021L2.80208 14.2025Z" fill="white"/>
</g>
<defs>
<clipPath id="clip0_5_1977">
<rect width="96.1017" height="21" fill="white" transform="translate(0.949097)"/>
</clipPath>
</defs>
</svg>
