<svg width="77" height="20" viewBox="0 0 77 20" fill="none" xmlns="http://www.w3.org/2000/svg">
<g clip-path="url(#clip0_5_1974)">
<path d="M41.71 3.46701H44.4099V17.8432L35.29 9.39687V17.4077H32.5904V3.06775L41.71 11.5266V3.4673V3.46701ZM28.3215 10.4617C28.3215 14.6123 24.9286 17.9889 20.7583 17.9889C16.5867 17.9889 13.1938 14.6123 13.1938 10.4617C13.1938 6.31145 16.5867 2.93457 20.7586 2.93457C24.9289 2.93457 28.3215 6.31116 28.3215 10.4617ZM25.5495 10.4617C25.5495 7.79954 23.3963 5.63328 20.7458 5.63328C18.095 5.63328 15.9544 7.79954 15.9544 10.4617C15.9544 13.1242 18.1064 15.2902 20.7455 15.2902C23.3966 15.2902 25.5486 13.124 25.5486 10.462H25.5495V10.4617ZM8.5855 10.5824C7.8674 10.0377 6.91945 9.60277 5.5209 9.15474C2.78455 8.28322 2.78455 7.60619 2.78455 7.26682C2.78455 6.49226 3.6478 5.69345 5.1071 5.69345C6.3351 5.69345 7.2842 6.2989 7.63669 6.56498L7.8309 6.71042L10.008 5.24543L9.76446 4.96766C9.6923 4.88239 8.0137 2.93457 5.0954 2.93457C3.696 2.93457 2.4081 3.38288 1.47156 4.19281C0.535007 5.00416 0 6.11781 0 7.27851C0 8.51393 0.547556 9.554 1.617 10.3651C2.3351 10.9089 3.28305 11.3447 4.6816 11.7919C7.41795 12.652 7.41795 13.3415 7.41795 13.6806C7.41795 14.4552 6.5547 15.254 5.0954 15.254C3.8674 15.254 2.9183 14.6486 2.56581 14.3825L2.3716 14.237L0.194496 15.702L0.438044 15.9798C0.511052 16.0642 2.18965 18.0006 5.0954 18.0006C6.49395 18.0006 7.7827 17.5532 8.71925 16.7421C9.6558 15.931 10.19 14.8057 10.19 13.6564C10.19 12.4335 9.6558 11.4063 8.5855 10.5824ZM48.7025 10.5222C48.7025 6.37162 52.0953 2.99503 56.2668 2.99503C60.4373 2.99503 63.8302 6.37162 63.8302 10.5222C63.8302 14.6728 60.4373 18.0494 56.2668 18.0494C52.0953 18.0494 48.7025 14.6728 48.7025 10.5222ZM51.4631 10.5222C51.4631 13.1844 53.6151 15.3507 56.2542 15.3507C58.905 15.3507 61.0456 13.1844 61.0456 10.5222C61.0456 7.85972 58.8936 5.6926 56.2542 5.6926C53.6151 5.6926 51.4631 7.85886 51.4631 10.5211V10.5222ZM68.427 10.3882C69.144 10.934 70.0922 11.3686 71.4916 11.8169C74.2271 12.6885 74.2271 13.3655 74.2271 13.7046C74.2271 14.4792 73.3636 15.278 71.9046 15.278C70.6763 15.278 69.7283 14.6728 69.375 14.4064L69.1808 14.2618L67.0045 15.726L67.247 16.0038C67.3202 16.0893 68.9988 18.0246 71.9055 18.0246C73.3031 18.0246 74.5919 17.5771 75.5284 16.7661C76.465 15.9561 77 14.8422 77 13.6803C77 12.4461 76.4524 11.4051 75.383 10.5949C74.6649 10.0502 73.7169 9.61418 72.3184 9.16701C69.582 8.29548 69.582 7.6176 69.582 7.27851C69.582 6.5048 70.4453 5.706 71.9046 5.706C73.1326 5.706 74.0817 6.31145 74.4339 6.57753L74.6284 6.72211L76.8055 5.25797L76.562 4.9802C76.4889 4.89493 74.8103 2.95938 71.9046 2.95938C70.506 2.95938 69.2173 3.40684 68.2807 4.21705C67.3442 5.02811 66.81 6.15346 66.81 7.30361C66.8215 8.53789 67.3567 9.57796 68.427 10.3893V10.3882Z" fill="white"/>
</g>
<defs>
<clipPath id="clip0_5_1974">
<rect width="77" height="15.1148" fill="white" transform="translate(0 2.93457)"/>
</clipPath>
</defs>
</svg>
