<svg width="79" height="21" viewBox="0 0 79 21" fill="none" xmlns="http://www.w3.org/2000/svg">
<g clip-path="url(#clip0_5_1968)">
<path d="M19.9048 16.634H21.2615V3.9165H19.9051L19.9048 16.634ZM23.0794 11.1801H27.6111V9.81956H23.0797L23.0794 11.1801ZM28.9547 16.634H30.3117V3.9165H28.955L28.9547 16.634ZM65.1548 3.9165V16.634H66.5119V3.9165H65.1548ZM70.3056 3.956H68.2244V5.51435H70.3056C71.8602 5.51435 73.1379 6.82195 73.1379 8.43296C73.1379 10.0443 71.8733 11.3516 70.3056 11.3516H68.2244V12.9099H70.3056C72.7031 12.9099 74.6398 10.9027 74.6398 8.43326C74.6398 5.96348 72.6899 3.956 70.3056 3.956ZM40.0334 15.5383C37.3594 15.5383 35.1726 13.2932 35.1726 10.52C35.1726 7.75971 37.3462 5.50148 40.0334 5.50148C42.7077 5.50148 44.8945 7.74654 44.8945 10.52C44.8945 13.2801 42.7077 15.5383 40.0334 15.5383ZM40.0334 3.9563C36.5293 3.9563 33.671 6.90153 33.671 10.52C33.671 14.1385 36.5293 17.0835 40.0334 17.0835C43.5375 17.0835 46.3961 14.1385 46.3961 10.52C46.3961 6.90153 43.5375 3.9563 40.0334 3.9563ZM55.4726 15.5383C52.7983 15.5383 50.6118 13.2932 50.6118 10.52C50.6118 7.75971 52.7852 5.50148 55.4726 5.50148C58.1466 5.50148 60.3335 7.74654 60.3335 10.52C60.3335 13.2801 58.1598 15.5383 55.4726 15.5383ZM55.4726 3.9563C51.9685 3.9563 49.1099 6.90153 49.1099 10.52C49.1099 14.1385 51.9685 17.0835 55.4726 17.0835C58.9767 17.0835 61.8353 14.1385 61.8353 10.52C61.8353 6.90153 58.9767 3.9563 55.4726 3.9563ZM12.3565 14.5347L10.7098 8.92189H9.19501L11.6057 17.0832H13.1204L16.9938 3.956H15.4919L12.3565 14.5347ZM1.50188 3.956H0L2.41096 12.1179H3.92571L1.50188 3.956ZM7.73264 3.956L3.85988 17.0832H5.36147L9.24768 3.956H7.73264ZM78.2627 5.06552L77.8276 3.956H77.485V5.58048H77.7222V4.3788L78.1965 5.56731V5.58048H78.2755L78.763 4.3788V5.59364H79V3.956H78.6574L78.2624 5.06552H78.2627ZM76.5106 5.58048H76.7476V4.19359H77.1824V3.9563H76.0758V4.19417H76.5106V5.58077V5.58048Z" fill="white"/>
</g>
<defs>
<clipPath id="clip0_5_1968">
<rect width="79" height="13.1667" fill="white" transform="translate(0 3.9165)"/>
</clipPath>
</defs>
</svg>
